{
	"asset":{
		"generator":"Khronos glTF Blender I/O v3.6.27",
		"version":"2.0"
	},
	"extensionsUsed":[
		"KHR_materials_specular",
		"KHR_materials_ior"
	],
	"scene":0,
	"scenes":[
		{
			"name":"Scene",
			"nodes":[
				0
			]
		}
	],
	"nodes":[
		{
			"mesh":0,
			"name":"Ethanol, 2,2'-(1,2-ethanediyldiimino)bis-.mol",
			"rotation":[
				0.7071068286895752,
				0,
				0,
				0.7071068286895752
			]
		}
	],
	"materials":[
		{
			"doubleSided":true,
			"extensions":{
				"KHR_materials_specular":{
					"specularColorFactor":[
						0.020080160244135427,
						0.020080160244135427,
						0.020080160244135427
					]
				},
				"KHR_materials_ior":{
					"ior":0.0010000000474974513
				}
			},
			"name":"kff0d0d",
			"pbrMetallicRoughness":{
				"baseColorFactor":[
					1,
					0.054999999701976776,
					0.054999999701976776,
					1
				],
				"metallicFactor":0,
				"roughnessFactor":0.5962674021720886
			}
		},
		{
			"doubleSided":true,
			"extensions":{
				"KHR_materials_specular":{
					"specularColorFactor":[
						0.020080160244135427,
						0.020080160244135427,
						0.020080160244135427
					]
				},
				"KHR_materials_ior":{
					"ior":0.0010000000474974513
				}
			},
			"name":"k3050f8",
			"pbrMetallicRoughness":{
				"baseColorFactor":[
					0.19099999964237213,
					0.3160000145435333,
					0.9729999899864197,
					1
				],
				"metallicFactor":0,
				"roughnessFactor":0.5962674021720886
			}
		},
		{
			"doubleSided":true,
			"extensions":{
				"KHR_materials_specular":{
					"specularColorFactor":[
						0.020080160244135427,
						0.020080160244135427,
						0.020080160244135427
					]
				},
				"KHR_materials_ior":{
					"ior":0.0010000000474974513
				}
			},
			"name":"k000000",
			"pbrMetallicRoughness":{
				"baseColorFactor":[
					0,
					0,
					0,
					1
				],
				"metallicFactor":0,
				"roughnessFactor":0.5962674021720886
			}
		},
		{
			"doubleSided":true,
			"extensions":{
				"KHR_materials_specular":{
					"specularColorFactor":[
						0.020080160244135427,
						0.020080160244135427,
						0.020080160244135427
					]
				},
				"KHR_materials_ior":{
					"ior":0.0010000000474974513
				}
			},
			"name":"kffffff",
			"pbrMetallicRoughness":{
				"metallicFactor":0,
				"roughnessFactor":0.5962674021720886
			}
		},
		{
			"doubleSided":true,
			"extensions":{
				"KHR_materials_specular":{
					"specularColorFactor":[
						0.020080160244135427,
						0.020080160244135427,
						0.020080160244135427
					]
				},
				"KHR_materials_ior":{
					"ior":0.0010000000474974513
				}
			},
			"name":"k808080",
			"pbrMetallicRoughness":{
				"baseColorFactor":[
					0.5040000081062317,
					0.5040000081062317,
					0.5040000081062317,
					1
				],
				"metallicFactor":0,
				"roughnessFactor":0.5962674021720886
			}
		}
	],
	"meshes":[
		{
			"name":"Ethanol, 2,2'-(1,2-ethanediyldiimino)bis-.mol",
			"primitives":[
				{
					"attributes":{
						"POSITION":0,
						"NORMAL":1
					},
					"indices":2,
					"material":0
				},
				{
					"attributes":{
						"POSITION":3,
						"NORMAL":4
					},
					"indices":5,
					"material":1
				},
				{
					"attributes":{
						"POSITION":6,
						"NORMAL":7
					},
					"indices":8,
					"material":2
				},
				{
					"attributes":{
						"POSITION":9,
						"NORMAL":10
					},
					"indices":11,
					"material":3
				},
				{
					"attributes":{
						"POSITION":12,
						"NORMAL":13
					},
					"indices":14,
					"material":4
				}
			]
		}
	],
	"accessors":[
		{
			"bufferView":0,
			"componentType":5126,
			"count":2083,
			"max":[
				5.802500247955322,
				0.3991999924182892,
				0.6770999431610107
			],
			"min":[
				-5.802599906921387,
				-0.36089998483657837,
				-0.6769000291824341
			],
			"type":"VEC3"
		},
		{
			"bufferView":1,
			"componentType":5126,
			"count":2083,
			"type":"VEC3"
		},
		{
			"bufferView":2,
			"componentType":5123,
			"count":7680,
			"type":"SCALAR"
		},
		{
			"bufferView":3,
			"componentType":5126,
			"count":2052,
			"max":[
				2.2026000022888184,
				0.3771999776363373,
				0.8151999711990356
			],
			"min":[
				-2.2026000022888184,
				-0.3977999985218048,
				-0.8154000043869019
			],
			"type":"VEC3"
		},
		{
			"bufferView":4,
			"componentType":5126,
			"count":2052,
			"type":"VEC3"
		},
		{
			"bufferView":5,
			"componentType":5123,
			"count":7680,
			"type":"SCALAR"
		},
		{
			"bufferView":6,
			"componentType":5126,
			"count":6172,
			"max":[
				4.686300277709961,
				0.43860000371932983,
				0.9480999708175659
			],
			"min":[
				-4.686300277709961,
				-0.44610002636909485,
				-0.9478999972343445
			],
			"type":"VEC3"
		},
		{
			"bufferView":7,
			"componentType":5126,
			"count":6172,
			"type":"VEC3"
		},
		{
			"bufferView":8,
			"componentType":5123,
			"count":23040,
			"type":"SCALAR"
		},
		{
			"bufferView":9,
			"componentType":5126,
			"count":16435,
			"max":[
				5.6946001052856445,
				1.1933000087738037,
				1.449299931526184
			],
			"min":[
				-6.466500282287598,
				-1.194000005722046,
				-1.4607999324798584
			],
			"type":"VEC3"
		},
		{
			"bufferView":10,
			"componentType":5126,
			"count":16435,
			"type":"VEC3"
		},
		{
			"bufferView":11,
			"componentType":5123,
			"count":61440,
			"type":"SCALAR"
		},
		{
			"bufferView":12,
			"componentType":5126,
			"count":54894,
			"max":[
				5.523499965667725,
				1.0192999839782715,
				1.2752999067306519
			],
			"min":[
				-6.292500019073486,
				-1.0199999809265137,
				-1.2867999076843262
			],
			"type":"VEC3"
		},
		{
			"bufferView":13,
			"componentType":5126,
			"count":54894,
			"type":"VEC3"
		},
		{
			"bufferView":14,
			"componentType":5123,
			"count":197400,
			"type":"SCALAR"
		}
	],
	"bufferViews":[
		{
			"buffer":0,
			"byteLength":24996,
			"byteOffset":0,
			"target":34962
		},
		{
			"buffer":0,
			"byteLength":24996,
			"byteOffset":24996,
			"target":34962
		},
		{
			"buffer":0,
			"byteLength":15360,
			"byteOffset":49992,
			"target":34963
		},
		{
			"buffer":0,
			"byteLength":24624,
			"byteOffset":65352,
			"target":34962
		},
		{
			"buffer":0,
			"byteLength":24624,
			"byteOffset":89976,
			"target":34962
		},
		{
			"buffer":0,
			"byteLength":15360,
			"byteOffset":114600,
			"target":34963
		},
		{
			"buffer":0,
			"byteLength":74064,
			"byteOffset":129960,
			"target":34962
		},
		{
			"buffer":0,
			"byteLength":74064,
			"byteOffset":204024,
			"target":34962
		},
		{
			"buffer":0,
			"byteLength":46080,
			"byteOffset":278088,
			"target":34963
		},
		{
			"buffer":0,
			"byteLength":197220,
			"byteOffset":324168,
			"target":34962
		},
		{
			"buffer":0,
			"byteLength":197220,
			"byteOffset":521388,
			"target":34962
		},
		{
			"buffer":0,
			"byteLength":122880,
			"byteOffset":718608,
			"target":34963
		},
		{
			"buffer":0,
			"byteLength":658728,
			"byteOffset":841488,
			"target":34962
		},
		{
			"buffer":0,
			"byteLength":658728,
			"byteOffset":1500216,
			"target":34962
		},
		{
			"buffer":0,
			"byteLength":394800,
			"byteOffset":2158944,
			"target":34963
		}
	],
	"buffers":[
		{
			"byteLength":2553744,
			"uri":"data:application/octet-stream;base64,"
		}
	]
}
